HIERARCHY
ROOT Hips
{
	OFFSET 0.00000 0.00000 0.00000
	CHANNELS 6 Xposition Yposition Zposition Zrotation Yrotation Xrotation 
	JOINT LHipJoint
	{
		OFFSET 0 0 0
		CHANNELS 3 Zrotation Yrotation Xrotation
		JOINT LeftHip
		{
			OFFSET 1.65674 -1.80282 0.62477
			CHANNELS 3 Zrotation Yrotation Xrotation
			JOINT LeftKnee
			{
				OFFSET 2.59720 -7.13576 0.00000
				CHANNELS 3 Zrotation Yrotation Xrotation
				JOINT LeftAnkle
				{
					OFFSET 2.49236 -6.84770 0.00000
					CHANNELS 3 Zrotation Yrotation Xrotation
					JOINT LeftToe
					{
						OFFSET 0.19704 -0.54136 2.14581
						CHANNELS 3 Zrotation Yrotation Xrotation
						End Site
						{
							OFFSET 0.00000 -0.00000 1.11249
						}
					}
				}
			}
		}
	}
	JOINT RHipJoint
	{
		OFFSET 0 0 0
		CHANNELS 3 Zrotation Yrotation Xrotation
		JOINT RightHip
		{
			OFFSET -1.61070 -1.80282 0.62476
			CHANNELS 3 Zrotation Yrotation Xrotation
			JOINT RightKnee
			{
				OFFSET -2.59502 -7.12977 0.00000
				CHANNELS 3 Zrotation Yrotation Xrotation
				JOINT RightAnkle
				{
					OFFSET -2.46780 -6.78024 0.00000
					CHANNELS 3 Zrotation Yrotation Xrotation
					JOINT RightToe
					{
						OFFSET -0.23024 -0.63258 2.13368
						CHANNELS 3 Zrotation Yrotation Xrotation
						End Site
						{
							OFFSET -0.00000 -0.00000 1.11569
						}
					}
				}
			}
		}
	}
	JOINT lowerback
	{
		OFFSET 0 0 0
		CHANNELS 3 Zrotation Yrotation Xrotation
		JOINT Chest
		{
			OFFSET 0.01961 2.05450 -0.14112
			CHANNELS 3 Zrotation Yrotation Xrotation
			JOINT Chest2
			{
				OFFSET 0.01021 2.06436 -0.05921
				CHANNELS 3 Zrotation Yrotation Xrotation
				JOINT lowerneck
				{
					OFFSET 0 0 0
					CHANNELS 3 Zrotation Yrotation Xrotation
					JOINT Neck
					{
						OFFSET 0.00713 1.56711 0.14968
						CHANNELS 3 Zrotation Yrotation Xrotation
						JOINT Head
						{
							OFFSET 0.03429 1.56041 -0.10006
							CHANNELS 3 Zrotation Yrotation Xrotation
							End Site
							{
								OFFSET 0.01305 1.62560 -0.05265
							}
						}
					}
				}
				JOINT LeftCollar
				{
					OFFSET 0 0 0
					CHANNELS 3 Zrotation Yrotation Xrotation
					JOINT LeftShoulder
					{
						OFFSET 3.54205 0.90436 -0.17364
CHANNELS 3 Zrotation Xrotation Yrotation
						JOINT LeftElbow
						{
OFFSET 0 -4.865130 -0.000000
CHANNELS 3 Zrotation Xrotation Yrotation
							JOINT LeftWrist
							{
OFFSET 0 -3.355540 0.000000
CHANNELS 3 Zrotation Xrotation Yrotation
								JOINT lhand
								{
									OFFSET 0 0 0
CHANNELS 3 Zrotation Xrotation Yrotation
									JOINT LFingers
									{
OFFSET 0 -0.661170 0.000000
CHANNELS 3 Zrotation Xrotation Yrotation
										End Site
										{
OFFSET 0 -0.533060 0.000000
										}
									}
								}
								JOINT LThumb
								{
OFFSET 0 0.000000 0.000000
CHANNELS 3 Zrotation Xrotation Yrotation
									End Site
									{
OFFSET 0 -0.541200 0.541200
									}
								}
							}
						}
					}
				}
				JOINT RightCollar
				{
					OFFSET 0 0 0
					CHANNELS 3 Zrotation Yrotation Xrotation
					JOINT RightShoulder
					{
						OFFSET -3.49802 0.75994 -0.32616
CHANNELS 3 Zrotation Xrotation Yrotation
						JOINT RightElbow
						{
OFFSET 0 -5.026490 0.000000
CHANNELS 3 Zrotation Xrotation Yrotation
							JOINT RightWrist
							{
OFFSET 0 -3.364310 0.000000
CHANNELS 3 Zrotation Xrotation Yrotation
								JOINT rhand
								{
									OFFSET 0 0 0
CHANNELS 3 Zrotation Xrotation Yrotation
									JOINT RFingers
									{
OFFSET 0 -0.730410 0.000000
CHANNELS 3 Zrotation Xrotation Yrotation
										End Site
										{
OFFSET 0 -0.588870 0.000000
										}
									}
								}
								JOINT RThumb
								{
OFFSET 0 0.000000 0.000000
CHANNELS 3 Zrotation Xrotation Yrotation
									End Site
									{
OFFSET 0 -0.597860 0.597860
									}
								}
							}
						}
					}
				}
			}
		}
	}
}
MOTION
Frames: 6
Frame Time: .0083333
6.1822 17.4574 -0.6277 -0.7200 -6.8427 -4.2749 0.0000 0.0000 0.0000 -21.6492 11.9337 -8.7335 2.9748 10.6541 31.1219 1.1796 12.7978 -28.7352 0.0030 -0.3531 -0.9701 0.0000 0.0000 0.0000 17.3870 14.0379 -4.5814 -2.5150 -9.8652 28.5414 -0.5587 -2.3599 -15.1734 -0.7279 5.4514 -15.2007 1.2709 -0.5776 5.4850 0.1835 -0.7113 2.8262 -0.4851 -0.3465 -0.1825 -2.6504 -1.9924 -9.7259 6.9959 -2.3846 -3.8010 2.6086 -1.0781 0.5973 0.0000 0.0000 0.0000 -7.2359 -19.5231 -62.7265 67.2943 -57.9594 40.471 42.9068 -18.4363 -10.2126 0.0 0.0 0.0 -7.1250 0.0 0.0 14.5306 43.3151 0.6181 0.0000 0.0000 0.0000 7.0783 -14.9208 74.8972 -44.8904 -50.7147 -22.1539 -60.6244 -48.9192 -29.1272 0.0 0.0 0.0 7.1250 0.0 -0.0 -16.2108 -17.0319 -20.9473
6.1878 17.4631 -0.6342 -0.8598 -6.9743 -4.4047 0.0000 0.0000 0.0000 -21.4675 12.0763 -8.7186 2.9991 10.6936 31.2532 1.1961 12.6836 -28.7487 0.0067 -0.5266 -1.4471 0.0000 0.0000 0.0000 17.5831 14.0949 -4.3282 -2.4844 -9.8095 28.3619 -0.5457 -2.4377 -15.0527 -0.7552 5.5504 -15.4853 1.3665 -0.5096 5.6556 0.2110 -0.6139 2.8759 -0.5147 -0.2971 -0.2251 -2.5304 -2.0188 -10.2950 6.8460 -2.4561 -3.2095 2.5321 -1.0976 0.8840 0.0000 0.0000 0.0000 -7.3001 -19.4977 -62.7522 67.1475 -57.9317 40.3466 42.9804 -18.361 -10.0903 0.0 0.0 0.0 -7.1250 0.0 0.0 14.5798 43.1672 0.6748 0.0000 0.0000 0.0000 7.0039 -14.9665 74.9656 -45.1126 -50.8235 -22.326 -60.4523 -48.3742 -28.583 0.0 0.0 0.0 7.1250 0.0 -0.0 -16.3049 -16.241 -20.9315
6.1952 17.4627 -0.6375 -0.9916 -7.2367 -4.3938 0.0000 0.0000 0.0000 -21.3657 12.2243 -8.7532 3.0034 10.7005 31.2765 1.2428 12.5376 -28.9430 0.0046 -0.4392 -1.2068 0.0000 0.0000 0.0000 17.7398 14.4360 -4.2568 -2.4861 -9.8126 28.3719 -0.5354 -2.5028 -14.9581 -0.7519 5.5383 -15.4504 1.5271 -0.3194 5.6361 0.2521 -0.3525 2.8433 -0.5776 -0.1655 -0.2433 -2.7793 -2.1662 -10.2290 6.9727 -2.6331 -3.0788 2.6134 -1.1805 0.9318 0.0000 -0.0000 0.0000 -7.4753 -19.3718 -63.0595 67.1468 -57.9316 40.346 42.8065 -18.4962 -9.9928 0.0 0.0 0.0 -7.1250 0.0 0.0 14.4003 43.0154 0.7213 0.0000 -0.0000 0.0000 6.845 -14.8629 74.7232 -45.2980 -50.9136 -22.4698 -60.0079 -47.5914 -27.9609 0.0 0.0 0.0 7.1250 0.0 -0.0 -16.2795 -15.1434 -20.6869
6.2019 17.4539 -0.6467 -0.9283 -7.8667 -4.5059 0.0000 0.0000 0.0000 -21.4541 12.7495 -8.7983 3.0192 10.7260 31.3612 1.3028 12.3295 -29.1736 0.0009 -0.1970 -0.5413 0.0000 0.0000 0.0000 17.7206 14.9361 -4.0595 -2.4720 -9.7868 28.2891 -0.5191 -2.3863 -14.6875 -0.6991 5.3447 -14.8943 1.3441 -0.0707 5.7830 0.2909 -0.0285 2.8693 -0.4537 -0.0057 -0.2913 -2.2001 -2.3485 -11.1222 6.0824 -2.9672 -2.1180 2.1933 -1.3386 1.3813 -0.0000 -0.0000 0.0000 -7.5848 -19.3248 -63.1245 67.3682 -57.9733 40.5336 42.5928 -18.4157 -10.1406 0.0 0.0 0.0 -7.1250 0.0 0.0 14.2233 43.1757 0.6545 -0.0000 -0.0000 0.0000 6.7255 -14.9028 74.5781 -45.2363 -50.8837 -22.4219 -60.0314 -47.7364 -28.0361 0.0 0.0 0.0 7.1250 0.0 -0.0 -16.2670 -15.254 -20.6914
6.2170 17.4535 -0.6562 -1.1939 -8.1894 -4.5342 0.0000 0.0000 0.0000 -21.2048 12.9944 -8.8448 3.0400 10.7596 31.4732 1.3269 12.2057 -29.2322 0.0002 0.0948 0.2605 0.0000 0.0000 0.0000 17.9968 15.1500 -3.9497 -2.4610 -9.7667 28.2245 -0.5205 -2.2608 -14.6374 -0.5913 4.9233 -13.6900 1.5317 -0.0233 5.9313 0.4091 0.0475 2.8939 -0.4422 0.0328 -0.3468 -0.3762 -2.6077 -14.0771 3.5151 -3.5872 0.7703 0.9734 -1.6465 2.7921 0.0000 -0.0000 0.0000 -7.6785 -19.3482 -62.9835 67.5032 -57.9985 40.6481 42.6721 -18.3097 -10.2207 0.0 0.0 0.0 -7.1250 0.0 0.0 14.3107 43.2909 0.6171 0.0000 -0.0000 0.0000 6.6671 -14.994 74.4821 -44.9214 -50.7299 -22.1779 -61.2592 -50.6338 -29.6515 0.0 0.0 0.0 7.1250 0.0 -0.0 -16.3605 -18.1471 -21.3535
6.2233 17.4514 -0.6632 -1.3338 -8.4088 -4.5997 0.0000 0.0000 0.0000 -21.0420 13.1403 -8.8409 3.0676 10.8036 31.6204 1.3704 12.0842 -29.4231 0.0039 0.4040 1.1100 0.0000 0.0000 0.0000 18.1881 15.3549 -3.7761 -2.4407 -9.7293 28.1045 -0.5226 -2.3113 -14.6915 -0.5570 4.7808 -13.2843 1.5461 0.0992 6.0662 0.5127 0.2150 2.8747 -0.3545 0.1153 -0.4386 -2.9620 -2.5213 -11.3842 6.6617 -3.1345 -1.6510 2.5191 -1.3947 1.6235 -0.0000 -0.0000 0.0000 -7.8342 -19.2515 -63.1242 67.5458 -58.0065 40.6842 42.6951 -18.2415 -10.3627 0.0 0.0 0.0 -7.1250 0.0 0.0 14.3551 43.4779 0.5513 -0.0000 -0.0000 0.0000 6.6447 -14.9559 74.2126 -44.8614 -50.7004 -22.1314 -61.2637 -50.9582 -29.96 0.0 0.0 0.0 7.1250 0.0 -0.0 -16.2553 -18.5173 -21.2705
